<svg id="Group_363" data-name="Group 363" xmlns="http://www.w3.org/2000/svg" xmlns:xlink="http://www.w3.org/1999/xlink" width="25.868" height="19.898" viewBox="0 0 25.868 19.898">
  <defs>
    <clipPath id="clip-path">
      <path id="Path_144" data-name="Path 144" d="M0-10H25.868V9.9H0Z" transform="translate(0 10)" fill="#fe5814" clip-rule="evenodd"/>
    </clipPath>
    <clipPath id="clip-path-2">
      <path id="Path_143" data-name="Path 143" d="M-1334,1905.375H735.438V-394H-1334Z" transform="translate(1334 394)" fill="#fe5814"/>
    </clipPath>
    <clipPath id="clip-path-3">
      <rect id="Rectangle_33" data-name="Rectangle 33" width="20.12" height="17.245" transform="translate(0 0)" fill="#fe5814"/>
    </clipPath>
    <clipPath id="clip-path-4">
      <path id="Path_142" data-name="Path 142" d="M12.581-9.784a.621.621,0,0,0-.942,0,.778.778,0,0,0,0,1.021l4.774,5.223H.661A.69.69,0,0,0,0-2.818a.7.7,0,0,0,.661.732H16.414L11.639,3.125a.791.791,0,0,0,0,1.03.621.621,0,0,0,.942,0l5.9-6.459a.754.754,0,0,0,0-1.017Z" transform="translate(0 10)" fill="#0ba13b" clip-rule="evenodd"/>
    </clipPath>
    <clipPath id="clip-path-5">
      <path id="Path_141" data-name="Path 141" d="M0,4.371H18.682V-10H0Z" transform="translate(0 10)" fill="#fe5814"/>
    </clipPath>
  </defs>
  <g id="Group_146" data-name="Group 146" clip-path="url(#clip-path)">
    <g id="Group_145" data-name="Group 145" transform="translate(-1917.104 -551.85)" clip-path="url(#clip-path-2)">
      <g id="Group_144" data-name="Group 144" transform="translate(1917.104 550.413)" clip-path="url(#clip-path-3)">
        <g id="Group_143" data-name="Group 143" transform="translate(0 1.437)" clip-path="url(#clip-path-4)">
          <g id="Group_142" data-name="Group 142" transform="translate(0 0)" clip-path="url(#clip-path-5)">
            <path id="Path_140" data-name="Path 140" d="M-5-15H28.054V13.742H-5Z" transform="translate(-2.186 7.814)" fill="#fe5814"/>
          </g>
        </g>
      </g>
    </g>
  </g>
</svg>
