<svg xmlns="http://www.w3.org/2000/svg" xmlns:xlink="http://www.w3.org/1999/xlink" width="77" height="25" viewBox="0 0 77 25">
    <defs>
        <linearGradient id="prefix__b" x1="11.024%" x2="92.12%" y1="38.525%" y2="72.972%">
            <stop offset="0%" stop-color="#FD9714"/>
            <stop offset="100%" stop-color="#FD5714"/>
        </linearGradient>
        <path id="prefix__a" d="M6.614 5.832c-3.69.304-6.59 3.392-6.59 7.16 0 3.62 2.678 6.615 6.161 7.113v.074h10.298c1.105-.521 1.876-1.685 1.876-3.034 0-1.743-1.352-3.176-3.048-3.27h-.985V12.19h.782v-.005h.025c.073 0 .147.001.22.005h.146v.008c2.526.191 4.523 2.337 4.523 4.946 0 1.113-.36 2.17-1.023 3.034h1.854v-.029c3.671-.322 6.552-3.403 6.552-7.158 0-3.435-2.411-6.305-5.633-7.016h-9.397c-1.732 0-3.141 1.398-3.141 3.117 0 1.66 1.316 3.022 2.967 3.112h.962v1.614l-.788.004c-.072 0-.143-.001-.214-.004h-.146v-.009c-2.46-.183-4.406-2.229-4.406-4.717 0-2.504 1.97-4.56 4.454-4.72v-.01h8.197C19.154 1.817 16.618.036 13.666.036c-3.493 0-6.404 2.492-7.052 5.796"/>
    </defs>
    <g fill="none" fill-rule="evenodd">
        <mask id="prefix__c" fill="#fff">
            <use xlink:href="#prefix__a"/>
        </mask>
        <path fill="url(#prefix__b)" d="M6.614 5.832c-3.69.304-6.59 3.392-6.59 7.16 0 3.62 2.678 6.615 6.161 7.113v.074h10.298c1.105-.521 1.876-1.685 1.876-3.034 0-1.743-1.352-3.176-3.048-3.27h-.985V12.19h.782v-.005h.025c.073 0 .147.001.22.005h.146v.008c2.526.191 4.523 2.337 4.523 4.946 0 1.113-.36 2.17-1.023 3.034h1.854v-.029c3.671-.322 6.552-3.403 6.552-7.158 0-3.435-2.411-6.305-5.633-7.016h-9.397c-1.732 0-3.141 1.398-3.141 3.117 0 1.66 1.316 3.022 2.967 3.112h.962v1.614l-.788.004c-.072 0-.143-.001-.214-.004h-.146v-.009c-2.46-.183-4.406-2.229-4.406-4.717 0-2.504 1.97-4.56 4.454-4.72v-.01h8.197C19.154 1.817 16.618.036 13.666.036c-3.493 0-6.404 2.492-7.052 5.796" mask="url(#prefix__c)"/>
        <g fill="#000">
            <path d="M22.599 4.248c.512.503.768 1.155.768 1.956v4.415h-1.565V6.386c0-.438-.15-.801-.454-1.09-.302-.289-.687-.433-1.152-.433-.475 0-.878.156-1.209.468-.33.312-.496.691-.496 1.138v4.15h-1.55V3.633h1.41l.084.825c.568-.643 1.304-.965 2.208-.965.791 0 1.444.252 1.956.755M30.006 4.248c.512.503.768 1.155.768 1.956v4.415h-1.565V6.386c0-.438-.151-.801-.454-1.09-.303-.289-.687-.433-1.153-.433-.475 0-.878.156-1.208.468-.33.312-.496.691-.496 1.138v4.15h-1.551V3.633h1.411l.084.825c.568-.643 1.304-.965 2.207-.965.792 0 1.444.252 1.957.755M41.507 8.74c.35-.433.524-.971.524-1.614 0-.643-.175-1.18-.524-1.614-.35-.433-.818-.65-1.404-.65-.587 0-1.055.215-1.405.643-.349.429-.524.97-.524 1.621 0 .652.175 1.192.524 1.62.35.43.818.644 1.405.644.586 0 1.055-.217 1.404-.65m-3.891.978c-.643-.694-.964-1.558-.964-2.592s.32-1.898.964-2.592c.642-.693 1.471-1.04 2.487-1.04 1.015 0 1.844.347 2.487 1.04.642.694.964 1.558.964 2.592s-.322 1.898-.964 2.592c-.643.694-1.472 1.04-2.487 1.04-1.016 0-1.845-.346-2.487-1.04" transform="translate(32.327 9.306)"/>
            <g>
                <path d="M3.508 1.285L4.906 1.285 4.906 0 3.508 0z" transform="translate(32.327 9.306) translate(31.754)"/>
                <path d="M2.725 2.348c0-.308.076-.561.23-.762.145-.189.33-.287.553-.298V.001c-.646.003-1.196.221-1.65.656-.456.438-.684.969-.684 1.593v1.383H0v1.188h1.174v5.798h1.55V4.821H4.5V3.633H2.725V2.348z" transform="translate(32.327 9.306) translate(31.754)"/>
            </g>
            <g>
                <path d="M0.499 10.521L3.201 10.521 3.201 9.152 0.499 9.152z" transform="translate(32.327 9.306) translate(9.104 3.633)"/>
                <path d="M6.427 0h-1.55v4.15c0 .447-.166.826-.497 1.138-.33.312-.729.469-1.194.469-.457 0-.843-.157-1.16-.469-.317-.312-.475-.691-.475-1.138V0H0v4.331c0 .783.268 1.444.803 1.984.536.54 1.195.81 1.977.81.82 0 1.519-.302 2.096-.907v.768c0 .699-.165 1.237-.496 1.614-.286.327-.68.511-1.18.555v1.367c.955-.064 1.716-.388 2.284-.972.638-.657.957-1.512.957-2.564L6.427 0z" transform="translate(32.327 9.306) translate(9.104 3.633)"/>
            </g>
            <path stroke="#FFF" stroke-width=".3" d="M7.035.215H2.786c-.393 0-.752.078-1.077.235-.325.158-.602.367-.829.629-.228.263-.407.569-.536.916-.13.349-.194.707-.194 1.075 0 .53.078.986.239 1.366.157.373.377.678.661.913.287.238.639.41 1.054.519.427.112.9.167 1.418.167H4.79c.436 0 .8.129 1.092.38.298.258.45.612.45 1.07 0 .246-.048.457-.142.633-.094.176-.217.323-.37.44-.15.116-.331.203-.545.26-.206.056-.42.084-.642.084H.494v1.672h4.703c.414 0 .79-.078 1.125-.236.337-.158.63-.373.877-.646.248-.273.438-.597.572-.974.136-.381.203-.793.203-1.234 0-.471-.073-.906-.218-1.302-.144-.393-.348-.73-.61-1.014-.263-.282-.576-.503-.937-.661-.363-.159-.752-.238-1.169-.238H3.115c-.35 0-.624-.11-.828-.32-.205-.21-.308-.467-.308-.77 0-.25-.005-.463 1.02-1.142.184-.027.384-.04.601-.04h3.435V.215z" transform="translate(32.327 9.306)"/>
        </g>
    </g>
</svg>
